<svg width="345" height="345" viewBox="0 0 345 345" fill="none" xmlns="http://www.w3.org/2000/svg">
<path d="M175.195 238.805C104.039 238.805 44.7422 216.703 31.2656 187.594C56.0625 263.602 40.9688 334.219 175.195 334.219C309.422 334.219 294.328 263.602 319.125 187.594C305.648 216.703 246.352 238.805 175.195 238.805Z" fill="#3E4347"/>
<path d="M108.891 110.508C184.898 89.4844 359.555 121.289 321.281 193.523C342.305 217.242 349.852 242.578 249.586 240.961C95.4141 277.078 -31.8047 202.148 24.2578 145.547C10.7813 118.055 40.4297 104.039 108.891 110.508Z" fill="#6F7980"/>
<path d="M175.195 235.57C242.578 235.57 298.641 214.547 311.578 187.055C312.656 184.359 313.195 181.664 314.273 178.969C314.273 177.352 314.812 176.273 314.812 174.656C314.812 141.234 252.281 114.281 175.734 114.281C99.1875 114.281 36.6562 141.234 36.6562 174.656C36.6562 176.273 36.6562 177.352 37.1953 178.969C37.7344 181.664 38.8125 184.359 39.8906 187.055C51.75 214.547 107.812 235.57 175.195 235.57" fill="#3E4347"/>
<path d="M175.195 235.57C242.578 235.57 298.641 214.547 311.578 187.055C311.578 185.977 312.117 185.438 312.117 184.359C300.797 155.789 243.656 134.227 174.656 134.227C105.656 134.227 48.5156 155.789 37.1953 184.359C37.7344 185.438 37.7344 185.977 37.7344 187.055C51.75 214.547 107.813 235.57 175.195 235.57Z" fill="#FBBF67"/>
<path d="M194.062 163.875C167.109 163.336 134.227 184.898 112.125 183.281C75.4687 180.586 113.203 198.375 139.078 198.375C156.328 198.375 168.188 182.742 177.352 176.273C190.289 168.188 222.094 164.414 194.062 163.875" fill="#D33B23"/>
<path d="M114.281 146.086C107.273 126.68 66.8437 158.484 101.344 165.492C106.734 166.57 120.211 163.336 114.281 146.086ZM192.445 207C183.82 183.281 133.688 222.633 176.813 230.719C183.281 231.797 199.992 228.023 192.445 207ZM201.609 139.078C193.523 119.672 143.391 151.477 185.977 158.484C191.906 159.023 208.617 155.789 201.609 139.078ZM284.086 160.102C280.852 139.078 216.703 150.937 260.906 173.039C267.375 176.273 286.781 178.969 284.086 160.102Z" fill="#FF8736"/>
<path d="M81.3984 178.969C75.4688 170.883 66.8438 160.102 63.6094 165.492C58.7578 173.039 57.1406 188.133 60.9141 188.672C87.8672 194.062 85.7109 185.437 81.3984 178.969V178.969ZM229.641 163.875C219.937 168.187 214.008 164.953 209.695 171.422C199.453 185.977 234.492 190.828 240.961 182.203C245.813 176.273 236.109 161.18 229.641 163.875V163.875ZM237.727 199.992C230.719 196.758 232.336 207.539 221.555 198.914C214.008 192.984 197.836 208.078 208.617 218.32C220.477 229.641 223.711 218.859 228.563 219.937C238.805 221.555 256.594 208.078 237.727 199.992V199.992ZM119.133 203.227C112.664 196.758 102.422 215.086 106.195 219.937C114.281 230.719 143.391 228.562 150.938 220.477C160.641 210.773 134.766 218.32 119.133 203.227Z" fill="#89664C"/>
<path d="M94.3359 197.836C94.3359 197.836 94.875 204.305 95.9531 207C88.9453 204.305 88.9453 191.906 88.9453 191.906C88.9453 191.906 84.0937 194.602 84.6328 199.453C77.0859 192.984 70.6172 196.219 70.6172 196.219C70.6172 196.219 80.3203 201.609 81.9375 205.383C76.5469 205.922 73.3125 207.539 71.1562 211.852C71.1562 211.852 81.9375 206.461 90.0234 210.234C86.7891 212.93 88.4062 219.398 88.4062 219.398C101.344 205.922 109.43 217.781 115.359 214.547C110.508 208.078 103.5 207 103.5 207C100.805 201.609 94.3359 197.836 94.3359 197.836V197.836ZM152.555 145.008C146.086 143.93 139.617 147.164 139.617 147.164C139.617 147.164 145.547 149.859 148.242 150.938C142.312 155.789 131.531 149.32 131.531 149.32C131.531 149.32 131.531 154.711 135.844 156.867C126.68 160.102 125.602 167.648 125.602 167.648C125.602 167.648 135.305 162.258 139.078 162.797C136.383 167.648 136.383 171.422 139.617 175.195C139.617 175.195 140.695 163.336 148.242 158.484C148.781 162.797 155.25 164.414 155.25 164.414C150.398 146.625 164.953 145.547 164.953 139.078C157.406 139.078 152.555 145.008 152.555 145.008V145.008ZM278.156 193.523C280.852 190.828 292.172 189.211 292.172 189.211C292.172 189.211 287.32 183.82 277.617 186.516C279.773 182.203 276.539 177.891 276.539 177.891C276.539 177.891 271.687 189.211 264.141 189.211C266.297 186.516 268.992 181.125 268.992 181.125C268.992 181.125 261.445 182.742 257.133 187.594C257.133 187.594 250.125 185.438 243.656 189.75C247.43 195.141 259.828 187.055 266.297 204.305C266.297 204.305 270.07 198.914 268.453 195.141C277.078 194.602 285.164 203.766 285.164 203.766C285.164 198.914 283.008 196.219 278.156 193.523" fill="#699635"/>
<path opacity="0.6" d="M179.508 61.4531C159.563 40.9687 173.039 10.7812 173.039 10.7812C173.039 10.7812 130.992 50.6719 157.406 78.1641C188.133 109.969 173.039 129.375 173.039 129.375C173.039 129.375 210.773 93.7969 179.508 61.4531V61.4531ZM120.211 79.7813C105.117 65.2266 115.359 43.125 115.359 43.125C115.359 43.125 84.0937 72.2344 104.039 92.1797C127.219 115.359 115.359 129.375 115.359 129.375C115.359 129.375 143.391 103.5 120.211 79.7813ZM238.805 79.7813C223.711 65.2266 233.953 43.125 233.953 43.125C233.953 43.125 202.688 72.2344 222.633 92.1797C245.813 115.359 233.953 129.375 233.953 129.375C233.953 129.375 261.984 103.5 238.805 79.7813Z" fill="#A6AEB0"/>
</svg>
